<svg xmlns="http://www.w3.org/2000/svg" viewBox="0 0 100 40"><g id="colour-white-pink"><circle cx="93.2797" cy="17.21497" r="5.7203" fill="#e5008a"/><path d="M13.4115,20.38491h2.55138a7.96744,7.96744,0,0,1-7.25552,4.5977,7.57546,7.57546,0,1,1,0-15.14863,8.05846,8.05846,0,0,1,7.28213,4.62431H13.4908a5.69686,5.69686,0,0,0-4.78344-2.6046,5.46387,5.46387,0,0,0-5.36886,5.5546A5.447,5.447,0,0,0,8.70736,22.9629,5.57165,5.57165,0,0,0,13.4115,20.38491Z" fill="#fff"/><path d="M31.45478,16.23905V24.584h-2.3385V15.99955a4.22646,4.22646,0,0,0-8.45138,0V24.584h-2.339V5.44863h2.339v5.97983a6.51907,6.51907,0,0,1,10.78988,4.81059Z" fill="#fff"/><path d="M36.18606,18.07248a5.40458,5.40458,0,0,0,5.31565,4.89042,5.295,5.295,0,0,0,4.57109-2.65782h2.55138a7.732,7.732,0,0,1-7.12247,4.67753,7.57546,7.57546,0,1,1,7.70736-7.57432,5.32672,5.32672,0,0,1-.02661.66419Zm.10644-2.01971H46.71038a5.33037,5.33037,0,0,0-10.41788,0Z" fill="#fff"/><path d="M53.78548,15.99955V24.584H51.447V16.23905A6.44378,6.44378,0,0,1,58.01117,9.834v2.01971A4.1524,4.1524,0,0,0,53.78548,15.99955Z" fill="#fff"/><path d="M61.48912,15.99955V24.584h-2.3385V16.23905A6.44378,6.44378,0,0,1,65.71481,9.834v2.01971A4.1524,4.1524,0,0,0,61.48912,15.99955Z" fill="#fff"/><path d="M66.98943,9.834H69.4876l4.49126,10.76327L78.47065,9.834h2.49816L70.88291,34.29671h-2.4987l4.4254-10.90858Z" fill="#fff"/><path d="M4.25455,33.04436a.98384.98384,0,0,0-.55736-.51086,1.26575,1.26575,0,0,0,1.05517-1.32784,1.305,1.305,0,0,0-.41789-1.03218,1.74134,1.74134,0,0,0-1.18836-.36826h-1.6a.38165.38165,0,0,0-.43147.43147v3.86336a.38192.38192,0,0,0,.4252.43826.38155.38155,0,0,0,.42468-.43826V32.6129H2.595a.97616.97616,0,0,1,.41527.07678.65229.65229,0,0,1,.28208.30193l.67018,1.23433a.651.651,0,0,0,.199.23611.51377.51377,0,0,0,.292.07626c.18178,0,.29565-.06007.34214-.17917a.45727.45727,0,0,0-.04335-.39177Zm-1.2547-1.06195H1.96453V30.47593H2.99985q.92927,0,.92979.75011Q3.92964,31.98215,2.99985,31.98241Z" fill="#fff"/><path d="M10.05482,30.4822a.305.305,0,0,0,.34528-.34528q0-.33144-.34528-.3317H7.6854a.39908.39908,0,0,0-.45184.45132v3.77717a.39908.39908,0,0,0,.45184.45132h2.36942a.33856.33856,0,1,0,0-.677H8.05053V32.44731H9.90908a.33855.33855,0,1,0,0-.677H8.05053V30.4822Z" fill="#fff"/><path d="M16.16276,33.46277a.39491.39491,0,0,0-.31864.07313,1.73524,1.73524,0,0,1-.46438.19589,2.01066,2.01066,0,0,1-.49833.06268,1.34908,1.34908,0,0,1-1.0818-.43147,2.186,2.186,0,0,1,0-2.43941,1.35541,1.35541,0,0,1,1.0818-.42781,1.99639,1.99639,0,0,1,.48475.05955,1.46813,1.46813,0,0,1,.44505.19275.38553.38553,0,0,0,.3249.07626.35962.35962,0,0,0,.2194-.1729.39578.39578,0,0,0,.03969-.28521.43568.43568,0,0,0-.2058-.269,2.12623,2.12623,0,0,0-.61743-.26536,2.7875,2.7875,0,0,0-.71668-.093,2.49948,2.49948,0,0,0-1.25157.29566,1.98948,1.98948,0,0,0-.79973.83263,3.05854,3.05854,0,0,0,0,2.55225,1.98477,1.98477,0,0,0,.79973.83682,2.49939,2.49939,0,0,0,1.25157.29513,2.76991,2.76991,0,0,0,.74645-.10291,1.9804,1.9804,0,0,0,.63415-.29513.4185.4185,0,0,0,.17916-.25909.38816.38816,0,0,0-.04335-.269A.33848.33848,0,0,0,16.16276,33.46277Z" fill="#fff"/><path d="M21.89407,30.03454a2.53607,2.53607,0,0,0-2.37673,0,2.02228,2.02228,0,0,0-.783.83263,3.04422,3.04422,0,0,0,0,2.546,2.03161,2.03161,0,0,0,.78667.83943,2.50533,2.50533,0,0,0,2.37307,0,2.0367,2.0367,0,0,0,.783-.83943,2.75557,2.75557,0,0,0,.27894-1.27821,2.72041,2.72041,0,0,0-.27894-1.26777A2.019,2.019,0,0,0,21.89407,30.03454Zm-.186,3.342a1.35247,1.35247,0,0,1-2.00481,0,2.30594,2.30594,0,0,1,0-2.46918,1.36909,1.36909,0,0,1,2.008,0,2.31452,2.31452,0,0,1-.00314,2.46918Z" fill="#fff"/><path d="M29.72213,29.75194a.45993.45993,0,0,0-.25909.06321.58275.58275,0,0,0-.17237.21573L27.75754,32.8652,26.2239,30.03088a.56258.56258,0,0,0-.176-.21573.476.476,0,0,0-.26223-.06321.35219.35219,0,0,0-.398.39856v3.98925a.38521.38521,0,1,0,.77,0V31.34513l1.24791,2.2639a.48591.48591,0,0,0,.13947.16246.34852.34852,0,0,0,.20581.05641.33086.33086,0,0,0,.199-.05328.53726.53726,0,0,0,.13947-.16559l1.24792-2.277v2.80768a.38521.38521,0,1,0,.76995,0V30.1505A.34661.34661,0,0,0,29.72213,29.75194Z" fill="#fff"/><path d="M37.06963,29.75194a.45991.45991,0,0,0-.25909.06321.58267.58267,0,0,0-.17238.21573L35.105,32.8652l-1.53365-2.83432a.56258.56258,0,0,0-.176-.21573.476.476,0,0,0-.26223-.06321.35219.35219,0,0,0-.398.39856v3.98925a.38521.38521,0,1,0,.76995,0V31.34513L34.753,33.609a.48591.48591,0,0,0,.13947.16246.3485.3485,0,0,0,.20581.05641.33086.33086,0,0,0,.199-.05328.53753.53753,0,0,0,.13947-.16559l1.24791-2.277v2.80768a.38521.38521,0,1,0,.77,0V30.1505A.34661.34661,0,0,0,37.06963,29.75194Z" fill="#fff"/><path d="M42.89654,30.4822a.305.305,0,0,0,.34527-.34528q0-.33144-.34527-.3317H40.52712a.39908.39908,0,0,0-.45184.45132v3.77717a.39908.39908,0,0,0,.45184.45132h2.36942a.33856.33856,0,1,0,0-.677H40.89225V32.44731H42.7508a.33855.33855,0,1,0,0-.677H40.89225V30.4822Z" fill="#fff"/><path d="M49.14133,29.75194a.35516.35516,0,0,0-.398.40535V33.071l-2.36994-3.073a1.10957,1.10957,0,0,0-.1823-.18962.38937.38937,0,0,0-.22932-.05641.35231.35231,0,0,0-.269.1097.44466.44466,0,0,0-.1029.3155v3.94955a.35837.35837,0,0,0,.39855.41162q.39177,0,.39177-.41162v-2.921L48.74956,34.286a.93558.93558,0,0,0,.19589.19223.42908.42908,0,0,0,.24237.06007.31815.31815,0,0,0,.2523-.10656.42957.42957,0,0,0,.093-.292V30.15729A.35247.35247,0,0,0,49.14133,29.75194Z" fill="#fff"/><path d="M53.88852,29.80522H52.60091a.39908.39908,0,0,0-.45184.45132v3.77717a.39908.39908,0,0,0,.45184.45132h1.28761a2.52738,2.52738,0,0,0,1.8152-.61064,2.66176,2.66176,0,0,0,0-3.4648A2.54364,2.54364,0,0,0,53.88852,29.80522Zm-.05328,3.97619H52.999V30.50884h.83629a1.43761,1.43761,0,0,1,1.61984,1.63289A1.44058,1.44058,0,0,1,53.83524,33.78141Z" fill="#fff"/><path d="M61.81583,32.34754a2.05061,2.05061,0,0,0-.97942-.43826l-.72346-.15253a1.19132,1.19132,0,0,1-.5443-.22252.48684.48684,0,0,1-.15932-.38132.60112.60112,0,0,1,.25909-.5046,1.17759,1.17759,0,0,1,.71667-.19275,2.36423,2.36423,0,0,1,.5443.06007,1.87935,1.87935,0,0,1,.49781.199.37025.37025,0,0,0,.30244.05641.31624.31624,0,0,0,.1891-.15932.37831.37831,0,0,0,.03291-.2523.3614.3614,0,0,0-.15932-.22879,2.18461,2.18461,0,0,0-.64355-.292,2.82035,2.82035,0,0,0-.75689-.09977,2.35561,2.35561,0,0,0-.94913.17917,1.5119,1.5119,0,0,0-.64407.5046,1.2803,1.2803,0,0,0-.23245.76316q0,1.01547,1.24792,1.28135l.73025.15253a1.45959,1.45959,0,0,1,.58087.21939.43766.43766,0,0,1,.16924.3646.54062.54062,0,0,1-.23872.455,1.30571,1.30571,0,0,1-.76369.176,2.85334,2.85334,0,0,1-.68324-.07992,2.25132,2.25132,0,0,1-.61743-.2523.30562.30562,0,0,0-.28207-.04962.32114.32114,0,0,0-.17917.17917.42988.42988,0,0,0-.02351.27528.398.398,0,0,0,.186.246,2.36058,2.36058,0,0,0,.73339.29827,3.72989,3.72989,0,0,0,.86607.09977,2.49436,2.49436,0,0,0,.97943-.176,1.45972,1.45972,0,0,0,.64041-.49415,1.24324,1.24324,0,0,0,.22566-.737A1.03447,1.03447,0,0,0,61.81583,32.34754Z" fill="#fff"/></g></svg>