<svg xmlns="http://www.w3.org/2000/svg" width="21.06" height="17.297" viewBox="0 0 21.06 17.297">
  <g id="Group_154" data-name="Group 154" transform="translate(-433.915 -319)">
    <g id="Path_22" data-name="Path 22" transform="translate(435 319)" fill="#fff">
      <path d="M -0.1538679003715515 10.22647857666016 L 0.4581953883171082 8.82513427734375 L 0.4999953806400299 8.729434013366699 L 0.4999953806400299 8.625003814697266 L 0.4999953806400299 0.5000042319297791 L 12.49999523162842 0.5000042319297791 L 12.49999523162842 9.500003814697266 L 1.872555375099182 9.500003814697266 L 1.781815409660339 9.500003814697266 L 1.696865439414978 9.53188419342041 L -0.1538679003715515 10.22647857666016 Z" stroke="none"/>
      <path d="M 0.999995231628418 1.000003814697266 L 0.999995231628418 8.833864212036133 L 0.7777032852172852 9.342804908752441 L 1.691085815429688 9.000003814697266 L 11.99999523162842 9.000003814697266 L 11.99999523162842 1.000003814697266 L 0.999995231628418 1.000003814697266 M -4.76837158203125e-06 3.814697265625e-06 L 12.99999523162842 3.814697265625e-06 L 12.99999523162842 10.00000381469727 L 1.872555732727051 10.00000381469727 L -1.085444450378418 11.11016464233398 L -4.76837158203125e-06 8.625003814697266 L -4.76837158203125e-06 3.814697265625e-06 Z" stroke="none" fill="#280938"/>
    </g>
    <g id="Path_21" data-name="Path 21" transform="translate(441 325)" fill="#fff">
      <path d="M 13.12415790557861 10.3214225769043 L 11.55912017822266 9.55136775970459 L 11.45473098754883 9.499997138977051 L 11.33838081359863 9.499997138977051 L 10.12500095367432 9.499997138977051 L 0.500000536441803 9.499997138977051 L 0.500000536441803 0.4999974966049194 L 12.50000095367432 0.4999974966049194 L 12.50000095367432 8.357137680053711 L 12.50000095367432 8.437817573547363 L 12.52538013458252 8.514407157897949 L 13.12415790557861 10.3214225769043 Z" stroke="none" />
      <path d="M 1.000000953674316 0.9999971389770508 L 1.000000953674316 8.999998092651367 L 11.57108020782471 8.999998092651367 L 12.27418899536133 9.345950126647949 L 12.00000095367432 8.51850700378418 L 12.00000095367432 0.9999971389770508 L 1.000000953674316 0.9999971389770508 M 9.5367431640625e-07 -2.86102294921875e-06 L 13.00000095367432 -2.86102294921875e-06 L 13.00000095367432 8.357137680053711 L 13.97412014007568 11.29687786102295 L 11.33838081359863 9.999997138977051 L 9.5367431640625e-07 9.999997138977051 L 9.5367431640625e-07 -2.86102294921875e-06 Z" stroke="none" fill="#280938"/>
    </g>
    <text id="x" transform="translate(445 333)" fill="#280938" font-size="10" font-family="Roboto-Regular, Roboto"><tspan x="0" y="0">x</tspan></text>
    <path id="Path_23" data-name="Path 23" d="M6739.295-862.089l2.28,3.047,5.131-4.492" transform="translate(-6302.001 1185.042)" fill="none" stroke="#280938" stroke-width="1"/>
  </g>
</svg>
