<?xml version="1.0"?>
<svg xmlns="http://www.w3.org/2000/svg" version="1" viewBox="0 0 50 50" enable-background="new 0 0 50 50">
    <path style="text-indent:0;text-align:start;line-height:normal;text-transform:none;block-progression:tb;-inkscape-font-specification:Bitstream Vera Sans" d="M 24.6875 1 C 19.508588 1 16.201229 3.2526766 14.34375 5.875 C 12.486271 8.4973234 12 11.37381 12 13 L 12 40 C 12 43.975758 9.53125 46.28125 9.53125 46.28125 A 1.0001 1.0001 0 0 0 10.1875 48 L 16.5 48 A 1.0001 1.0001 0 0 0 17 47.84375 C 17 47.84375 17.904418 47.28749 18.625 46.0625 C 19.345582 44.83751 20 42.901515 20 40 L 20 38.90625 C 21.205797 39.410716 22.894785 40 25.09375 40 C 31.20279 40 35.016622 38.032447 37.21875 35.5 C 39.420878 32.967553 40 29.994444 40 28 C 40 23.628379 37.568857 20.147502 33.15625 17.875 C 35.807719 15.870336 37 13.363393 37 10.40625 C 37 8.7729167 36.238593 6.4989135 34.3125 4.53125 C 32.386407 2.5635865 29.259722 1 24.6875 1 z M 24.6875 3 C 28.815278 3 31.357343 4.3551635 32.90625 5.9375 C 34.455157 7.5198365 35 9.4395833 35 10.40625 C 35 13.35625 34.098779 15.247127 30.8125 17.125 A 1.0001 1.0001 0 0 0 30.9375 18.9375 C 35.893184 20.938834 38 23.87037 38 28 C 38 29.605556 37.516622 32.119947 35.71875 34.1875 C 33.920878 36.255053 30.78471 38 25.09375 38 C 22.227083 38 19.46875 36.53125 19.46875 36.53125 A 1.0001 1.0001 0 0 0 18 37.40625 L 18 40 C 18 42.598485 17.404418 44.16249 16.875 45.0625 C 16.421213 45.833937 16.212589 45.944999 16.125 46 L 12.1875 46 C 13.067174 44.683353 14 42.788735 14 40 L 14 13 C 14 11.82619 14.457479 9.2089266 16 7.03125 C 17.542521 4.8535734 20.066412 3 24.6875 3 z M 25 4 C 23.916667 4 22.326264 4.4332383 20.8125 5.6875 C 19.298736 6.9417617 18 9.0743421 18 12.1875 L 18 32.1875 A 1.0001 1.0001 0 0 0 18.0625 32.53125 C 18.464396 33.736937 19.390365 34.77066 20.625 35.59375 C 21.859635 36.41684 23.413865 37 25.09375 37 C 26.61659 37 28.791216 36.618746 30.6875 35.25 C 32.583784 33.881254 34.09375 31.472304 34.09375 27.8125 C 34.09375 24.827997 33.495828 22.786979 32.5 21.34375 C 31.536114 19.946814 30.270622 19.162523 29.15625 18.4375 A 1.0001 1.0001 0 0 0 29.625 18.0625 C 30.487053 16.817313 32 14.877083 32 11.40625 C 32 8.5817402 30.770867 6.6245146 29.28125 5.5 C 27.791633 4.3754854 26.140741 4 25 4 z M 25 6 C 25.659259 6 27.002117 6.2932646 28.0625 7.09375 C 29.122883 7.8942354 30 9.1307598 30 11.40625 C 30 14.001193 29.127559 15.238459 28.28125 16.4375 C 26.965736 16.151628 25.698417 15.90625 24.6875 15.90625 C 23.759069 15.90625 22.971011 15.99558 22.28125 16.3125 C 21.591489 16.629417 21 17.36713 21 18.1875 C 21 19.081944 21.711983 19.829464 22.46875 20.15625 C 23.225517 20.483036 24.104167 20.59375 25.1875 20.59375 C 26.085984 20.59375 27.129331 20.435397 28.1875 20.21875 C 29.234806 20.903857 30.170016 21.523573 30.84375 22.5 C 31.572922 23.556771 32.09375 25.097003 32.09375 27.8125 C 32.09375 30.952696 30.959966 32.593746 29.53125 33.625 C 28.102534 34.656254 26.27091 35 25.09375 35 C 23.873635 35 22.690365 34.56441 21.75 33.9375 C 20.839844 33.330729 20.219984 32.527418 20 31.9375 L 20 12.1875 C 20 9.6006579 20.951264 8.1394883 22.0625 7.21875 C 23.173736 6.2980117 24.583333 6 25 6 z M 24.6875 17.90625 C 25.397838 17.90625 26.470899 18.111782 27.5 18.3125 C 26.696516 18.457862 25.892192 18.59375 25.1875 18.59375 C 24.270833 18.59375 23.593233 18.460714 23.25 18.3125 C 22.906767 18.164286 23 18.193056 23 18.1875 C 23 18.10787 22.889761 18.23308 23.125 18.125 C 23.360239 18.016917 23.915931 17.90625 24.6875 17.90625 z" overflow="visible" enable-background="accumulate" font-family="Bitstream Vera Sans"/>
</svg>
