<svg xmlns="http://www.w3.org/2000/svg" width="18.404" height="9.996" viewBox="0 0 18.404 9.996">
  <path id="git-commit" d="M14.423,11.75a3.369,3.369,0,0,1-3.221,3.5,3.369,3.369,0,0,1-3.221-3.5A3.369,3.369,0,0,1,11.2,8.25a3.369,3.369,0,0,1,3.221,3.5ZM15.752,11A4.74,4.74,0,0,0,11.2,6.752,4.74,4.74,0,0,0,6.653,11H2.69a.753.753,0,0,0,0,1.5H6.653a4.74,4.74,0,0,0,4.55,4.248,4.74,4.74,0,0,0,4.55-4.248h3.962a.753.753,0,0,0,0-1.5Z" transform="translate(-2 -6.752)" fill="#280938" fill-rule="evenodd"/>
</svg>
