<svg xmlns="http://www.w3.org/2000/svg" width="59.052" height="32.074" viewBox="0 0 59.052 32.074">
  <path id="git-commit" d="M41.86,22.789c0,6.2-4.627,11.23-10.334,11.23s-10.334-5.028-10.334-11.23,4.627-11.23,10.334-11.23S41.86,16.587,41.86,22.789Zm4.264-2.406c-1.1-7.839-7.3-13.63-14.6-13.63s-13.5,5.792-14.6,13.63H4.214a2.415,2.415,0,0,0,0,4.813H16.928c1.1,7.839,7.3,13.63,14.6,13.63s13.5-5.792,14.6-13.63H58.837a2.415,2.415,0,0,0,0-4.813Z" transform="translate(-2 -6.752)" fill="#280938" fill-rule="evenodd"/>
</svg>
