<svg xmlns="http://www.w3.org/2000/svg" width="44.92" height="42.245" viewBox="0 0 44.92 42.245">
  <path id="archive" d="M0,4.018A2.918,2.918,0,0,1,2.808,1H42.113A2.918,2.918,0,0,1,44.92,4.018v6.035a2.918,2.918,0,0,1-2.808,3.018V35.7a7.3,7.3,0,0,1-7.019,7.544H9.826A7.3,7.3,0,0,1,2.808,35.7V13.07A2.918,2.918,0,0,1,0,10.053ZM5.615,13.07V35.7a4.377,4.377,0,0,0,4.211,4.526H35.094A4.377,4.377,0,0,0,39.305,35.7V13.07Zm36.5-9.053H2.808v6.035H42.113Zm-28.075,16.6a1.459,1.459,0,0,1,1.4-1.509H29.479a1.513,1.513,0,0,1,0,3.018H15.441A1.459,1.459,0,0,1,14.038,20.614Z" transform="translate(0 -1)" fill="#280938"/>
</svg>
