<svg xmlns="http://www.w3.org/2000/svg" viewBox="0 0 371.72 365.38"><defs><style>.cls-1{fill:#280938;}</style></defs><title>Asset 7</title><g id="Layer_2" data-name="Layer 2"><g id="Layer_2-2" data-name="Layer 2"><path class="cls-1" d="M77,365.38,0,288.32,45,244.1a86.31,86.31,0,0,1,19.32-12.79A85.35,85.35,0,0,1,82,225a81.27,81.27,0,0,1,25.07-1.74l106.79,12.47c22.27-21.08,41.88-38.79,48-43.38A31.28,31.28,0,0,1,274,186.67a30.19,30.19,0,0,1,10.57-.36l1.08.15,1,.39a35.7,35.7,0,0,1,6.39,3.21c4.17-3.36,7-5.4,11.18-6.89a30.07,30.07,0,0,1,4.83-1.25l1-.11c2.6-.16,10.93-.19,17.48,5.28a33.08,33.08,0,0,1,5.08-1.26,35,35,0,0,1,14.92.88,34.61,34.61,0,0,1,13.3,7.09,31.57,31.57,0,0,1,9.72,15.34,28.34,28.34,0,0,1,.18,15.26,27.11,27.11,0,0,1-7.93,13l-6.17,5.8L280.36,319l-32.25,26.66c-1.67.95-6.77,3.85-34.19,2.51l-99.7-1.63ZM27,288.43l53.76,53.78,29.09-14.73,104.7,1.72c10,.47,20.53.33,24.24-.27l29.11-24.25,75.57-75.15,7-6.54h0a9.15,9.15,0,0,0,2-3.61,9.49,9.49,0,0,0-.18-5.21,12.83,12.83,0,0,0-3.9-6.08,15.56,15.56,0,0,0-5.9-3.09,16.4,16.4,0,0,0-6.69-.45,14.19,14.19,0,0,0-5.69,2.28l-10,6.85-4.24-11.38a1.44,1.44,0,0,0-.29-.51c-.61-.68-2.33-1.05-3.76-1.05h0a12,12,0,0,0-1.17.34c-1.23.43-2.05.9-6.48,4.5-1.15.93-3,2.4-5.28,4.2l-6.94,5.39-5.92-6.5a14.67,14.67,0,0,0-2.26-2,16.48,16.48,0,0,0-2.77-1.62,11.31,11.31,0,0,0-2.92.22,12.33,12.33,0,0,0-4.77,2.34c-4.06,3-18.09,15.46-37.54,33.66,9.2,4.66,17.47,12.89,18.43,26.47.85,12-3.49,19.06-7.28,22.83-7.6,7.56-17.89,7.45-20,7.33L139.52,295l.62-19L228,278.91c.85,0,3.91-.23,5.52-1.89s1.87-5.32,1.68-8c-.9-12.71-19-14-19.77-14l-.56,0L105.15,242.15a62,62,0,0,0-18.91,1.35,68.06,68.06,0,0,0-28.52,14.71Z"/><rect class="cls-1" x="66.7" y="256.8" width="19" height="95.71" transform="translate(-191.16 139.91) rotate(-44.32)"/><path class="cls-1" d="M162.93,152.56c-26.46,0-48-20.7-48-46.14s21.52-46.14,48-46.14,48,20.7,48,46.14S189.39,152.56,162.93,152.56Zm0-73.28c-16,0-29,12.18-29,27.14s13,27.14,29,27.14,29-12.17,29-27.14S178.91,79.28,162.93,79.28Z"/><rect class="cls-1" x="228.06" y="226.87" width="117.93" height="19" transform="translate(-83.93 261.87) rotate(-43.4)"/><path class="cls-1" d="M168.05,212.87H152.41a15.19,15.19,0,0,1-15.17-15.17v-4.27a52.58,52.58,0,0,1-11.05-3.94,51.72,51.72,0,0,1-6.61-3.84L117,188.31a18,18,0,0,1-26.09-.44l-9.92-10.76a15.7,15.7,0,0,1,.72-21.92l3.19-3a62.52,62.52,0,0,1-10.5-22.74H71.2a17.38,17.38,0,0,1-17.36-17.36V96.91A15.11,15.11,0,0,1,68.93,81.82h6.5a59,59,0,0,1,3.6-11,57.09,57.09,0,0,1,4.62-8.5l-3-2.53a14.92,14.92,0,0,1-1-21.81L93.6,23.8a13.58,13.58,0,0,1,17.9-1.29l7.7,5.88a83.32,83.32,0,0,1,7.39-4.09,84.28,84.28,0,0,1,10.24-4.19v-4A15.52,15.52,0,0,1,152,.5L168.61,0a15.44,15.44,0,0,1,15.91,15.44v3.22a50.65,50.65,0,0,1,9.12,2.18A52.58,52.58,0,0,1,205,26.3l0,0a15.37,15.37,0,0,1,22.38-.65L241,39.33a14.82,14.82,0,0,1,.37,20.6l-2.33,2.51a53.34,53.34,0,0,1,5.15,8.49,54.4,54.4,0,0,1,4.15,11.75l3.65-.19a14,14,0,0,1,14.69,14v19.47a14.78,14.78,0,0,1-14.76,14.76h-4.59a66,66,0,0,1-3.7,12.45,64.63,64.63,0,0,1-6.73,12.41l1.81,2.11a14.69,14.69,0,0,1-.92,20L227.18,188A15,15,0,0,1,205,186.66l-1.19-1.48a72.78,72.78,0,0,1-20.12,8v4A15.67,15.67,0,0,1,168.05,212.87Zm-11.81-19h8.46V176.7l8.47-.92a52.68,52.68,0,0,0,14.23-3.61,53.84,53.84,0,0,0,12.54-7.26l7.38-5.72,9.76,12.16,4.56-4.43-9.71-11.36,5.67-6.2A45,45,0,0,0,226.06,136a46.57,46.57,0,0,0,3.41-15.25l.47-9H247.7v-10l-16.5.82-.5-9.45a36.37,36.37,0,0,0-3.56-13.84,34.35,34.35,0,0,0-7.38-10l-6.9-6.46,11.9-12.83-8.14-8.16-9.84,11.09-7.12-6.7a33.56,33.56,0,0,0-12.11-7.31,31.61,31.61,0,0,0-12-1.65l-10,.54V19.1l-9.69.29V34.82l-7.34,1.72a63.9,63.9,0,0,0-13.56,4.83,65.52,65.52,0,0,0-10.38,6.34L118.81,52l-15-11.46-7.48,7.65L110.5,60.24l-6.83,7.27a38.82,38.82,0,0,0-7.25,11A40.56,40.56,0,0,0,93.1,92l-.61,8.84H72.83v9.61H91.05l.81,8.61a43.68,43.68,0,0,0,4,14.74A42.14,42.14,0,0,0,104.6,146l7.07,6.88L97.15,166.67l7,7.58,14.61-14.8,6.76,6.6a34.66,34.66,0,0,0,9,6.37,33.38,33.38,0,0,0,12.76,3.32l9,.5Z"/></g></g></svg>