<svg xmlns="http://www.w3.org/2000/svg" width="44.92" height="56.234" viewBox="0 0 44.92 56.234">
  <path id="collection" d="M7.019,12.55c-.775,0-1.4-.9-1.4-2.008s.628-2.008,1.4-2.008H37.9c.775,0,1.4.9,1.4,2.008s-.628,2.008-1.4,2.008Zm5.615-8.033c-.775,0-1.4-.9-1.4-2.008S11.859.5,12.634.5H32.286c.775,0,1.4.9,1.4,2.008s-.628,2.008-1.4,2.008ZM0,50.709c0,3.328,1.885,6.025,4.211,6.025h36.5c2.326,0,4.211-2.7,4.211-6.025V22.592c0-3.328-1.885-6.025-4.211-6.025H4.211C1.885,16.567,0,19.264,0,22.592Zm4.211,2.008c-.775,0-1.4-.9-1.4-2.008V22.592c0-1.109.628-2.008,1.4-2.008h36.5c.775,0,1.4.9,1.4,2.008V50.709c0,1.109-.628,2.008-1.4,2.008Z" transform="translate(0 -0.5)" fill="#280938"/>
</svg>
